PathFileType	4	(X/Y/Z)	TVC_16_BWA5_walk_RCNL2025.trc
DataRate	CameraRate	NumFrames	NumMarkers	Units	OrigDataRate	OrigDataStartFrame	OrigNumFrames
100	100	6	27	mm	100	252	671
Frame#	Time	R_Shoulder			L_Shoulder			C7			J_Notch			R_Elbow			L_Elbow			R_Wrist			L_Wrist			R_Asis			L_Asis			R_Psis			L_Psis			Sacral			Thoracic			Sternum			R_Thigh_Lateral			R_Knee_Lateral			R_Shank_Lateral			R_Ankle_Lateral			R_Heel			R_Toe			L_Thigh_Lateral			L_Knee_Lateral			L_Shank_Lateral			L_Ankle_Lateral			L_Heel			L_Toe		
		X1	Y1	Z1	X2	Y2	Z2	X3	Y3	Z3	X4	Y4	Z4	X5	Y5	Z5	X6	Y6	Z6	X7	Y7	Z7	X8	Y8	Z8	X9	Y9	Z9	X10	Y10	Z10	X11	Y11	Z11	X12	Y12	Z12	X13	Y13	Z13	X14	Y14	Z14	X15	Y15	Z15	X16	Y16	Z16	X17	Y17	Z17	X18	Y18	Z18	X19	Y19	Z19	X20	Y20	Z20	X21	Y21	Z21	X22	Y22	Z22	X23	Y23	Z23	X24	Y24	Z24	X25	Y25	Z25	X26	Y26	Z26	X27	Y27	Z27
252	2.51000000	-398.386719	1299.930176	56.973404	-424.596466	1314.955566	-268.828918	-470.558105	1358.350098	-93.342453	-329.100677	1235.509521	-104.033318	-442.638306	984.637817	124.521286	-401.217438	994.226501	-346.921082	-336.842697	778.014618	103.900688	-297.880493	812.603577	-279.571976	-359.102875	872.656677	0.224497	-396.033051	897.656250	-261.215149	-543.987488	911.354431	-58.099354	-554.688721	913.690430	-164.543427	-549.338104	912.522430	-111.321390	-534.084167	1092.369995	-107.399178	-294.631927	1046.146362	-130.911636	-434.690277	594.408569	86.420944	-450.969086	420.136475	-7.084527	-494.067474	270.439636	46.046577	-564.105835	60.829922	-30.797680	-617.437561	56.767784	-76.084824	-447.155487	41.691940	-80.239189	-345.504608	626.405701	-360.666718	-265.509064	459.368286	-275.475372	-288.716522	317.258362	-349.788422	-290.684753	84.459343	-288.856934	-336.418396	74.107025	-246.155701	-161.760818	66.015678	-244.387756
253	2.52000000	-395.227661	1299.149414	55.723980	-420.647858	1314.207764	-270.176880	-467.082550	1357.591797	-94.755913	-325.457703	1234.887573	-105.112610	-438.615265	983.841431	123.479057	-397.721344	993.372986	-348.033783	-332.627533	777.323364	102.326180	-294.949387	811.282257	-280.979469	-355.483429	872.111816	-0.770463	-391.812592	896.555725	-262.361206	-540.305603	910.628174	-59.714890	-550.975159	913.087891	-165.989502	-545.640381	911.858032	-112.852196	-530.444824	1091.605713	-109.058060	-290.839630	1045.544312	-131.780045	-432.021820	594.080200	85.706192	-448.999237	419.696350	-7.637784	-492.899750	270.298859	45.696674	-564.050232	60.889767	-30.852755	-617.358032	56.958794	-76.162132	-447.205231	41.634060	-80.204712	-343.456146	624.290588	-361.840027	-263.680450	457.541168	-276.005585	-282.510040	315.315308	-350.173676	-280.927307	82.039375	-288.691528	-326.703339	71.005478	-246.378174	-151.663315	65.816597	-243.204559
254	2.53000000	-392.030792	1298.343872	54.403107	-416.592804	1313.436035	-271.598083	-463.552277	1356.818848	-96.251656	-321.755737	1234.239136	-106.241776	-434.517303	983.019836	122.368279	-394.137421	992.479431	-349.186920	-328.290543	776.637848	100.737499	-291.998672	809.898560	-282.377029	-351.785126	871.534668	-1.836438	-387.565613	895.411499	-263.565338	-536.559998	909.885559	-61.374550	-547.234375	912.478760	-167.464890	-541.897186	911.182159	-114.419720	-526.750671	1090.830200	-110.780800	-286.984955	1044.901611	-132.670380	-429.194153	593.711975	84.942108	-446.916626	419.226105	-8.240061	-491.632965	270.128998	45.322113	-563.988342	60.948181	-30.909397	-617.278687	57.157604	-76.235115	-447.247650	41.571785	-80.173370	-341.434204	621.990051	-362.930115	-261.814117	455.664154	-276.472290	-277.244812	313.336243	-350.456116	-272.284485	79.748627	-288.409943	-318.087646	68.162331	-246.393753	-142.756943	65.356125	-242.102768
255	2.54000000	-388.788818	1297.522339	53.009544	-412.434906	1312.647217	-273.092804	-459.964325	1356.040405	-97.828995	-317.994141	1233.570190	-107.424644	-430.351257	982.182800	121.186279	-390.465729	991.553284	-350.382782	-323.835159	775.969727	99.137661	-289.015411	808.469543	-283.763016	-348.023224	870.925293	-2.966331	-383.292267	894.237427	-264.821869	-532.755920	909.135925	-63.073284	-543.464417	911.868408	-168.969299	-538.110168	910.502167	-116.021292	-523.002686	1090.052490	-112.562408	-283.070343	1044.222900	-133.588470	-426.216736	593.301453	84.125389	-444.715973	418.727112	-8.896450	-490.265656	269.929199	44.918594	-563.919067	61.009621	-30.971279	-617.198669	57.368408	-76.307449	-447.279877	41.509289	-80.145752	-339.405762	619.537231	-363.931091	-259.883209	453.766998	-276.893402	-273.023590	311.258331	-350.635010	-264.809265	77.576492	-288.016968	-310.617340	65.570351	-246.192673	-135.080902	64.606636	-241.142944
256	2.55000000	-385.494110	1296.695557	51.542553	-408.179352	1311.849609	-274.660675	-456.316010	1355.266113	-99.486526	-314.172516	1232.887817	-108.665077	-426.124603	981.341736	119.930969	-386.706604	990.603333	-351.623505	-319.266586	775.331299	97.529263	-285.985260	807.014130	-285.136978	-344.215149	870.285278	-4.152958	-378.994110	893.048706	-266.125092	-528.899231	908.390137	-64.805298	-539.662170	911.262634	-170.502747	-534.280701	909.826385	-117.654022	-519.201904	1089.282593	-114.397354	-279.098602	1043.514648	-134.540695	-423.103943	592.848816	83.252495	-442.393250	418.202545	-9.611582	-488.800568	269.701019	44.481655	-563.840942	61.080368	-31.042540	-617.116150	57.597721	-76.383972	-447.299652	41.451324	-80.122337	-337.336914	616.976440	-364.843414	-257.863312	451.879364	-277.287476	-269.881531	309.038055	-350.709686	-258.516113	75.515137	-287.523712	-304.303986	63.222359	-245.780670	-128.636200	63.556625	-240.367828
257	2.56000000	-382.138824	1295.875366	50.001930	-403.832703	1311.052368	-276.300751	-452.605133	1354.506592	-101.222145	-310.290955	1232.200928	-109.966820	-421.845428	980.509583	118.600922	-382.860565	989.640015	-352.910828	-314.591919	774.735352	95.914356	-282.892975	805.552765	-286.499619	-340.380188	869.617615	-5.389102	-374.674286	891.862244	-267.469574	-524.996460	907.660278	-66.564049	-535.823730	910.667603	-172.065292	-530.410095	909.163940	-119.314671	-515.349548	1088.531372	-116.279694	-275.072937	1042.784790	-135.533676	-419.872742	592.356445	82.319298	-439.945404	417.657471	-10.389394	-487.243866	269.448608	44.006401	-563.752563	61.168736	-31.127501	-617.028625	57.854649	-76.470268	-447.305725	41.402443	-80.103691	-335.197876	614.361389	-365.673828	-255.732361	450.030609	-277.672821	-267.785553	306.662903	-350.682281	-253.379395	73.561455	-286.947937	-299.122711	61.112778	-245.179153	-123.383827	62.213776	-239.800552
